<svg width="202" height="48" viewBox="0 0 202 48" fill="none" xmlns="http://www.w3.org/2000/svg">
<path d="M4 12L12 4L12 12L4 12Z" fill="#F76F34"/>
<path d="M4 36L12 44L12 36L4 36Z" fill="#F76F34"/>
<path d="M44 36L36 44L36 36L44 36Z" fill="#F76F34"/>
<path d="M28 36L20 44L20 36L28 36Z" fill="#F76F34"/>
<path d="M44 12L36 4L36 12L44 12Z" fill="#F76F34"/>
<path d="M20 28L28 20L28 28L20 28Z" fill="#F76F34"/>
<path d="M40 0L48 8L48 3.49691e-07L40 0Z" fill="#FDE2D6"/>
<path d="M8 0L-1.55766e-06 8L-1.90735e-06 3.49691e-07L8 0Z" fill="#FDE2D6"/>
<path d="M8 48L-1.55766e-06 40L-1.90735e-06 48L8 48Z" fill="#FDE2D6"/>
<path d="M40 48L48 40L48 48L40 48Z" fill="#FDE2D6"/>
<rect x="12" y="4" width="8" height="8" fill="#F76F34"/>
<rect x="4" y="12" width="8" height="8" fill="#F76F34"/>
<rect x="4" y="20" width="8" height="8" fill="#F76F34"/>
<rect x="4" y="28" width="8" height="8" fill="#F76F34"/>
<rect x="12" y="36" width="8" height="8" fill="#F76F34"/>
<rect x="20" y="4" width="8" height="8" fill="#F76F34"/>
<rect x="28" y="4" width="8" height="8" fill="#F76F34"/>
<rect x="28" y="20" width="8" height="8" fill="#F76F34"/>
<rect x="36" y="28" width="8" height="8" fill="#F76F34"/>
<rect x="36" y="20" width="8" height="8" fill="#F76F34"/>
<path d="M56.6172 11.842H68.2722V26.5H65.0802V14.677H59.8092V26.5H56.6172V11.842Z" fill="white"/>
<path d="M72.1359 26.5V11.842H79.0659C79.7519 11.842 80.3679 11.961 80.9139 12.199C81.4599 12.423 81.9219 12.738 82.2999 13.144C82.6919 13.55 82.9929 14.047 83.2029 14.635C83.4129 15.209 83.5179 15.839 83.5179 16.525C83.5179 17.225 83.4129 17.862 83.2029 18.436C82.9929 19.01 82.6919 19.5 82.2999 19.906C81.9219 20.312 81.4599 20.634 80.9139 20.872C80.3679 21.096 79.7519 21.208 79.0659 21.208H75.3279V26.5H72.1359ZM75.3279 18.436H78.6879C79.1639 18.436 79.5349 18.317 79.8009 18.079C80.0809 17.827 80.2209 17.463 80.2209 16.987V16.063C80.2209 15.587 80.0809 15.23 79.8009 14.992C79.5349 14.74 79.1639 14.614 78.6879 14.614H75.3279V18.436Z" fill="white"/>
<path d="M92.4271 26.752C91.4611 26.752 90.5791 26.591 89.7811 26.269C88.9831 25.947 88.3041 25.471 87.7441 24.841C87.1841 24.197 86.7501 23.406 86.4421 22.468C86.1341 21.516 85.9801 20.417 85.9801 19.171C85.9801 17.925 86.1341 16.833 86.4421 15.895C86.7501 14.943 87.1841 14.152 87.7441 13.522C88.3041 12.878 88.9831 12.395 89.7811 12.073C90.5791 11.751 91.4611 11.59 92.4271 11.59C93.3931 11.59 94.2751 11.751 95.0731 12.073C95.8711 12.395 96.5501 12.878 97.1101 13.522C97.6701 14.152 98.1041 14.943 98.4121 15.895C98.7201 16.833 98.8741 17.925 98.8741 19.171C98.8741 20.417 98.7201 21.516 98.4121 22.468C98.1041 23.406 97.6701 24.197 97.1101 24.841C96.5501 25.471 95.8711 25.947 95.0731 26.269C94.2751 26.591 93.3931 26.752 92.4271 26.752ZM92.4271 23.917C93.3931 23.917 94.1421 23.602 94.6741 22.972C95.2201 22.342 95.4931 21.439 95.4931 20.263V18.079C95.4931 16.903 95.2201 16 94.6741 15.37C94.1421 14.74 93.3931 14.425 92.4271 14.425C91.4611 14.425 90.7051 14.74 90.1591 15.37C89.6271 16 89.3611 16.903 89.3611 18.079V20.263C89.3611 21.439 89.6271 22.342 90.1591 22.972C90.7051 23.602 91.4611 23.917 92.4271 23.917Z" fill="white"/>
<path d="M113.13 16.882H113.067L111.996 19.024L109.14 24.211L106.347 19.045L105.234 16.735H105.171V26.5H102.168V11.842H105.549L109.14 18.709H109.182L112.731 11.842H116.133V26.5H113.13V16.882Z" fill="white"/>
<path d="M120.004 11.842H128.614V14.677H123.196V26.5H120.004V11.842Z" fill="white"/>
<path d="M131.421 26.5V11.842H138.351C139.037 11.842 139.653 11.961 140.199 12.199C140.745 12.423 141.207 12.738 141.585 13.144C141.978 13.55 142.278 14.047 142.488 14.635C142.698 15.209 142.803 15.839 142.803 16.525C142.803 17.225 142.698 17.862 142.488 18.436C142.278 19.01 141.978 19.5 141.585 19.906C141.207 20.312 140.745 20.634 140.199 20.872C139.653 21.096 139.037 21.208 138.351 21.208H134.613V26.5H131.421ZM134.613 18.436H137.973C138.45 18.436 138.82 18.317 139.086 18.079C139.366 17.827 139.506 17.463 139.506 16.987V16.063C139.506 15.587 139.366 15.23 139.086 14.992C138.82 14.74 138.45 14.614 137.973 14.614H134.613V18.436Z" fill="white"/>
<path d="M153.325 26.5L152.275 23.014H147.382L146.332 26.5H143.098L147.928 11.842H151.876L156.643 26.5H153.325ZM149.86 14.74H149.755L148.138 20.305H151.498L149.86 14.74Z" fill="white"/>
<path d="M159.301 11.842H166.42C167.638 11.842 168.583 12.185 169.255 12.871C169.941 13.557 170.284 14.467 170.284 15.601C170.284 16.161 170.207 16.637 170.053 17.029C169.913 17.421 169.717 17.743 169.465 17.995C169.227 18.247 168.94 18.436 168.604 18.562C168.282 18.674 167.932 18.737 167.554 18.751V18.877C167.904 18.877 168.268 18.94 168.646 19.066C169.038 19.192 169.395 19.395 169.717 19.675C170.039 19.941 170.305 20.291 170.515 20.725C170.739 21.159 170.851 21.691 170.851 22.321C170.851 22.895 170.753 23.441 170.557 23.959C170.375 24.463 170.116 24.904 169.78 25.282C169.444 25.66 169.045 25.961 168.583 26.185C168.121 26.395 167.617 26.5 167.071 26.5H159.301V11.842ZM162.493 23.812H166.168C166.588 23.812 166.917 23.7 167.155 23.476C167.407 23.238 167.533 22.909 167.533 22.489V21.775C167.533 21.355 167.407 21.033 167.155 20.809C166.917 20.571 166.588 20.452 166.168 20.452H162.493V23.812ZM162.493 17.848H165.664C166.084 17.848 166.413 17.729 166.651 17.491C166.889 17.253 167.008 16.924 167.008 16.504V15.874C167.008 15.454 166.889 15.125 166.651 14.887C166.413 14.649 166.084 14.53 165.664 14.53H162.493V17.848Z" fill="white"/>
<path d="M173.937 11.842H177.045V19.003L176.709 22.09H176.772L178.221 19.297L183.051 11.842H185.907V26.5H182.799V19.339L183.135 16.252H183.072L181.623 19.045L176.793 26.5H173.937V11.842Z" fill="white"/>
<path d="M189.764 11.842H192.872V19.003L192.536 22.09H192.599L194.048 19.297L198.878 11.842H201.734V26.5H198.626V19.339L198.962 16.252H198.899L197.45 19.045L192.62 26.5H189.764V11.842ZM195.791 10.96C194.867 10.96 194.118 10.757 193.544 10.351C192.97 9.94497 192.522 9.36397 192.2 8.60797L191.759 7.53697L194.174 6.63397L194.846 8.75497C194.93 8.79697 195.063 8.83197 195.245 8.85997C195.427 8.88797 195.609 8.90197 195.791 8.90197C195.973 8.90197 196.155 8.88797 196.337 8.85997C196.519 8.83197 196.652 8.79697 196.736 8.75497L197.408 6.63397L199.823 7.53697L199.382 8.60797C199.06 9.36397 198.612 9.94497 198.038 10.351C197.464 10.757 196.715 10.96 195.791 10.96Z" fill="white"/>
<path d="M59.0471 40.132C58.6511 40.132 58.2954 40.0623 57.9801 39.923C57.6648 39.7837 57.3971 39.5857 57.1771 39.329C56.9644 39.0723 56.7994 38.7607 56.6821 38.394C56.5721 38.0273 56.5171 37.6167 56.5171 37.162C56.5171 36.7073 56.5721 36.2967 56.6821 35.93C56.7994 35.5633 56.9644 35.2517 57.1771 34.995C57.3971 34.7383 57.6648 34.5403 57.9801 34.401C58.2954 34.2617 58.6511 34.192 59.0471 34.192C59.6118 34.192 60.0628 34.3167 60.4001 34.566C60.7448 34.808 61.0014 35.127 61.1701 35.523L60.4331 35.897C60.3304 35.6037 60.1618 35.3763 59.9271 35.215C59.6924 35.0537 59.3991 34.973 59.0471 34.973C58.7831 34.973 58.5521 35.017 58.3541 35.105C58.1561 35.1857 57.9911 35.303 57.8591 35.457C57.7271 35.6037 57.6281 35.7833 57.5621 35.996C57.4961 36.2013 57.4631 36.4287 57.4631 36.678V37.646C57.4631 38.1447 57.5951 38.5553 57.8591 38.878C58.1304 39.1933 58.5264 39.351 59.0471 39.351C59.7584 39.351 60.2718 39.021 60.5871 38.361L61.2251 38.79C61.0418 39.2007 60.7668 39.527 60.4001 39.769C60.0408 40.011 59.5898 40.132 59.0471 40.132Z" fill="white" fill-opacity="0.8"/>
<path d="M63.6883 35.094H61.7523V34.324H66.5043V35.094H64.5683V40H63.6883V35.094Z" fill="white" fill-opacity="0.8"/>
<path d="M67.6558 34.324H68.5358V35.248H68.5798C68.7265 34.8887 68.9391 34.6247 69.2178 34.456C69.5038 34.28 69.8448 34.192 70.2408 34.192C70.5928 34.192 70.9118 34.2617 71.1978 34.401C71.4838 34.5403 71.7258 34.7383 71.9238 34.995C72.1291 35.2517 72.2831 35.5633 72.3858 35.93C72.4958 36.2967 72.5508 36.7073 72.5508 37.162C72.5508 37.6167 72.4958 38.0273 72.3858 38.394C72.2831 38.7607 72.1291 39.0723 71.9238 39.329C71.7258 39.5857 71.4838 39.7837 71.1978 39.923C70.9118 40.0623 70.5928 40.132 70.2408 40.132C69.4708 40.132 68.9171 39.78 68.5798 39.076H68.5358V42.2H67.6558V34.324ZM69.9988 39.34C70.4975 39.34 70.8898 39.186 71.1758 38.878C71.4618 38.5627 71.6048 38.152 71.6048 37.646V36.678C71.6048 36.172 71.4618 35.765 71.1758 35.457C70.8898 35.1417 70.4975 34.984 69.9988 34.984C69.8008 34.984 69.6101 35.0133 69.4268 35.072C69.2508 35.1233 69.0968 35.1967 68.9648 35.292C68.8328 35.3873 68.7265 35.5047 68.6458 35.644C68.5725 35.776 68.5358 35.919 68.5358 36.073V38.185C68.5358 38.3683 68.5725 38.5333 68.6458 38.68C68.7265 38.8193 68.8328 38.9403 68.9648 39.043C69.0968 39.1383 69.2508 39.2117 69.4268 39.263C69.6101 39.3143 69.8008 39.34 69.9988 39.34Z" fill="white" fill-opacity="0.8"/>
<path d="M76.1817 40.132C75.8003 40.132 75.452 40.0623 75.1367 39.923C74.8213 39.7837 74.55 39.5857 74.3227 39.329C74.1027 39.065 73.9303 38.7533 73.8057 38.394C73.681 38.0273 73.6187 37.6167 73.6187 37.162C73.6187 36.7147 73.681 36.3077 73.8057 35.941C73.9303 35.5743 74.1027 35.2627 74.3227 35.006C74.55 34.742 74.8213 34.5403 75.1367 34.401C75.452 34.2617 75.8003 34.192 76.1817 34.192C76.563 34.192 76.9077 34.2617 77.2157 34.401C77.531 34.5403 77.8023 34.742 78.0297 35.006C78.257 35.2627 78.433 35.5743 78.5577 35.941C78.6823 36.3077 78.7447 36.7147 78.7447 37.162C78.7447 37.6167 78.6823 38.0273 78.5577 38.394C78.433 38.7533 78.257 39.065 78.0297 39.329C77.8023 39.5857 77.531 39.7837 77.2157 39.923C76.9077 40.0623 76.563 40.132 76.1817 40.132ZM76.1817 39.351C76.6583 39.351 77.047 39.2043 77.3477 38.911C77.6483 38.6177 77.7987 38.1703 77.7987 37.569V36.755C77.7987 36.1537 77.6483 35.7063 77.3477 35.413C77.047 35.1197 76.6583 34.973 76.1817 34.973C75.705 34.973 75.3163 35.1197 75.0157 35.413C74.715 35.7063 74.5647 36.1537 74.5647 36.755V37.569C74.5647 38.1703 74.715 38.6177 75.0157 38.911C75.3163 39.2043 75.705 39.351 76.1817 39.351Z" fill="white" fill-opacity="0.8"/>
<path d="M80.1919 34.324H81.0499V37.47L80.9619 38.834H81.0059L81.7099 37.624L83.9759 34.324H84.7899V40H83.9319V36.854L84.0199 35.49H83.9759L83.2719 36.7L81.0059 40H80.1919V34.324Z" fill="white" fill-opacity="0.8"/>
<path d="M87.8797 35.094H85.9437V34.324H90.6957V35.094H88.7597V40H87.8797V35.094Z" fill="white" fill-opacity="0.8"/>
<path d="M93.8416 40.132C93.4529 40.132 93.1009 40.0623 92.7856 39.923C92.4776 39.7837 92.2099 39.5857 91.9826 39.329C91.7626 39.065 91.5902 38.7533 91.4656 38.394C91.3482 38.0273 91.2896 37.6167 91.2896 37.162C91.2896 36.7147 91.3482 36.3077 91.4656 35.941C91.5902 35.5743 91.7626 35.2627 91.9826 35.006C92.2099 34.742 92.4776 34.5403 92.7856 34.401C93.1009 34.2617 93.4529 34.192 93.8416 34.192C94.2229 34.192 94.5639 34.2617 94.8646 34.401C95.1652 34.5403 95.4219 34.7347 95.6346 34.984C95.8472 35.226 96.0086 35.5157 96.1186 35.853C96.2359 36.1903 96.2946 36.5607 96.2946 36.964V37.382H92.2136V37.646C92.2136 37.888 92.2502 38.1153 92.3236 38.328C92.4042 38.5333 92.5142 38.713 92.6536 38.867C92.8002 39.021 92.9762 39.142 93.1816 39.23C93.3942 39.318 93.6326 39.362 93.8966 39.362C94.2559 39.362 94.5676 39.2777 94.8316 39.109C95.1029 38.9403 95.3119 38.6983 95.4586 38.383L96.0856 38.834C95.9022 39.2227 95.6162 39.538 95.2276 39.78C94.8389 40.0147 94.3769 40.132 93.8416 40.132ZM93.8416 34.929C93.5996 34.929 93.3796 34.973 93.1816 35.061C92.9836 35.1417 92.8112 35.259 92.6646 35.413C92.5252 35.567 92.4152 35.7503 92.3346 35.963C92.2539 36.1683 92.2136 36.3957 92.2136 36.645V36.722H95.3486V36.601C95.3486 36.095 95.2092 35.6917 94.9306 35.391C94.6592 35.083 94.2962 34.929 93.8416 34.929Z" fill="white" fill-opacity="0.8"/>
<path d="M96.8977 39.23H97.6457C97.741 39.098 97.8253 38.9403 97.8987 38.757C97.972 38.5737 98.0343 38.3537 98.0857 38.097C98.137 37.8403 98.1773 37.536 98.2067 37.184C98.236 36.832 98.2507 36.4177 98.2507 35.941V34.324H102.09V40H101.21V35.094H99.0867V35.963C99.0867 36.513 99.0647 36.9933 99.0207 37.404C98.984 37.8147 98.929 38.1667 98.8557 38.46C98.7897 38.7533 98.709 38.9953 98.6137 39.186C98.5183 39.3693 98.4157 39.516 98.3057 39.626C98.1663 39.7653 98.0123 39.8643 97.8437 39.923C97.675 39.9743 97.4733 40 97.2387 40H96.8977V39.23Z" fill="white" fill-opacity="0.8"/>
<path d="M103.964 34.324H104.844V36.381H106.461C107.033 36.381 107.488 36.5423 107.825 36.865C108.163 37.1877 108.331 37.6313 108.331 38.196C108.331 38.768 108.166 39.2117 107.836 39.527C107.506 39.8423 107.052 40 106.472 40H103.964V34.324ZM106.34 39.23C106.67 39.23 106.927 39.1677 107.11 39.043C107.294 38.9183 107.385 38.7093 107.385 38.416V37.954C107.385 37.6607 107.294 37.4553 107.11 37.338C106.927 37.2133 106.67 37.151 106.34 37.151H104.844V39.23H106.34Z" fill="white" fill-opacity="0.8"/>
<path d="M109.679 34.324H110.559V36.689H113.397V34.324H114.277V40H113.397V37.459H110.559V40H109.679V34.324Z" fill="white" fill-opacity="0.8"/>
<path d="M120.271 40C119.941 40 119.703 39.912 119.556 39.736C119.417 39.56 119.329 39.34 119.292 39.076H119.237C119.112 39.428 118.907 39.692 118.621 39.868C118.335 40.044 117.994 40.132 117.598 40.132C116.997 40.132 116.527 39.978 116.19 39.67C115.86 39.362 115.695 38.944 115.695 38.416C115.695 37.8807 115.889 37.47 116.278 37.184C116.674 36.898 117.286 36.755 118.115 36.755H119.237V36.194C119.237 35.7907 119.127 35.4827 118.907 35.27C118.687 35.0573 118.35 34.951 117.895 34.951C117.55 34.951 117.261 35.028 117.026 35.182C116.799 35.336 116.608 35.5413 116.454 35.798L115.926 35.303C116.08 34.995 116.326 34.7347 116.663 34.522C117 34.302 117.426 34.192 117.939 34.192C118.628 34.192 119.164 34.3607 119.545 34.698C119.926 35.0353 120.117 35.5047 120.117 36.106V39.23H120.766V40H120.271ZM117.741 39.384C117.961 39.384 118.163 39.3583 118.346 39.307C118.529 39.2557 118.687 39.1823 118.819 39.087C118.951 38.9917 119.054 38.8817 119.127 38.757C119.2 38.6323 119.237 38.4967 119.237 38.35V37.415H118.071C117.565 37.415 117.195 37.4883 116.96 37.635C116.733 37.7817 116.619 37.9943 116.619 38.273V38.504C116.619 38.7827 116.718 38.999 116.916 39.153C117.121 39.307 117.396 39.384 117.741 39.384Z" fill="white" fill-opacity="0.8"/>
<path d="M121.516 39.23H122.143L122.506 38.394C122.587 38.2033 122.686 38.0603 122.803 37.965C122.92 37.8623 123.052 37.8 123.199 37.778V37.734C122.693 37.69 122.312 37.525 122.055 37.239C121.798 36.953 121.67 36.568 121.67 36.084C121.67 35.534 121.835 35.105 122.165 34.797C122.495 34.4817 122.95 34.324 123.529 34.324H126.037V40H125.157V37.822H123.683L123.089 39.219C122.957 39.527 122.81 39.736 122.649 39.846C122.495 39.9487 122.319 40 122.121 40H121.516V39.23ZM125.157 37.074V35.094H123.661C123.331 35.094 123.074 35.1563 122.891 35.281C122.708 35.4057 122.616 35.6147 122.616 35.908V36.271C122.616 36.5643 122.708 36.7733 122.891 36.898C123.074 37.0153 123.331 37.074 123.661 37.074H125.157Z" fill="white" fill-opacity="0.8"/>
<path d="M130.508 34.324H131.388V36.7H132.521L133.621 34.962C133.702 34.83 133.779 34.7237 133.852 34.643C133.926 34.555 133.999 34.489 134.072 34.445C134.146 34.401 134.223 34.3717 134.303 34.357C134.384 34.335 134.476 34.324 134.578 34.324H135.095V35.094H134.413L133.522 36.502C133.464 36.5973 133.412 36.6743 133.368 36.733C133.324 36.7917 133.28 36.843 133.236 36.887C133.192 36.9237 133.145 36.9567 133.093 36.986C133.042 37.008 132.98 37.03 132.906 37.052V37.096C133.06 37.118 133.192 37.1693 133.302 37.25C133.42 37.3233 133.541 37.47 133.665 37.69L134.534 39.23H135.183V40H134.545C134.355 40 134.179 39.9523 134.017 39.857C133.863 39.7543 133.713 39.571 133.566 39.307L132.521 37.448H131.388V40H130.508V34.324Z" fill="white" fill-opacity="0.8"/>
<path d="M138.529 40.132C138.148 40.132 137.8 40.0623 137.484 39.923C137.169 39.7837 136.898 39.5857 136.67 39.329C136.45 39.065 136.278 38.7533 136.153 38.394C136.029 38.0273 135.966 37.6167 135.966 37.162C135.966 36.7147 136.029 36.3077 136.153 35.941C136.278 35.5743 136.45 35.2627 136.67 35.006C136.898 34.742 137.169 34.5403 137.484 34.401C137.8 34.2617 138.148 34.192 138.529 34.192C138.911 34.192 139.255 34.2617 139.563 34.401C139.879 34.5403 140.15 34.742 140.377 35.006C140.605 35.2627 140.781 35.5743 140.905 35.941C141.03 36.3077 141.092 36.7147 141.092 37.162C141.092 37.6167 141.03 38.0273 140.905 38.394C140.781 38.7533 140.605 39.065 140.377 39.329C140.15 39.5857 139.879 39.7837 139.563 39.923C139.255 40.0623 138.911 40.132 138.529 40.132ZM138.529 39.351C139.006 39.351 139.395 39.2043 139.695 38.911C139.996 38.6177 140.146 38.1703 140.146 37.569V36.755C140.146 36.1537 139.996 35.7063 139.695 35.413C139.395 35.1197 139.006 34.973 138.529 34.973C138.053 34.973 137.664 35.1197 137.363 35.413C137.063 35.7063 136.912 36.1537 136.912 36.755V37.569C136.912 38.1703 137.063 38.6177 137.363 38.911C137.664 39.2043 138.053 39.351 138.529 39.351Z" fill="white" fill-opacity="0.8"/>
<path d="M142.54 34.324H143.695L145.422 37.272H145.466L147.182 34.324H148.326V40H147.468V35.38H147.413L147.094 35.996L145.433 38.812L143.772 35.996L143.453 35.38H143.398V40H142.54V34.324Z" fill="white" fill-opacity="0.8"/>
<path d="M150.199 34.324H154.632V40H153.752V35.094H151.079V40H150.199V34.324Z" fill="white" fill-opacity="0.8"/>
<path d="M160.629 40C160.299 40 160.061 39.912 159.914 39.736C159.775 39.56 159.687 39.34 159.65 39.076H159.595C159.471 39.428 159.265 39.692 158.979 39.868C158.693 40.044 158.352 40.132 157.956 40.132C157.355 40.132 156.886 39.978 156.548 39.67C156.218 39.362 156.053 38.944 156.053 38.416C156.053 37.8807 156.248 37.47 156.636 37.184C157.032 36.898 157.645 36.755 158.473 36.755H159.595V36.194C159.595 35.7907 159.485 35.4827 159.265 35.27C159.045 35.0573 158.708 34.951 158.253 34.951C157.909 34.951 157.619 35.028 157.384 35.182C157.157 35.336 156.966 35.5413 156.812 35.798L156.284 35.303C156.438 34.995 156.684 34.7347 157.021 34.522C157.359 34.302 157.784 34.192 158.297 34.192C158.987 34.192 159.522 34.3607 159.903 34.698C160.285 35.0353 160.475 35.5047 160.475 36.106V39.23H161.124V40H160.629ZM158.099 39.384C158.319 39.384 158.521 39.3583 158.704 39.307C158.888 39.2557 159.045 39.1823 159.177 39.087C159.309 38.9917 159.412 38.8817 159.485 38.757C159.559 38.6323 159.595 38.4967 159.595 38.35V37.415H158.429C157.923 37.415 157.553 37.4883 157.318 37.635C157.091 37.7817 156.977 37.9943 156.977 38.273V38.504C156.977 38.7827 157.076 38.999 157.274 39.153C157.48 39.307 157.755 39.384 158.099 39.384Z" fill="white" fill-opacity="0.8"/>
<path d="M162.38 34.324H163.26V36.689H166.098V34.324H166.978V40H166.098V37.459H163.26V40H162.38V34.324Z" fill="white" fill-opacity="0.8"/>
<path d="M168.847 34.324H169.705V37.47L169.617 38.834H169.661L170.365 37.624L172.631 34.324H173.445V40H172.587V36.854L172.675 35.49H172.631L171.927 36.7L169.661 40H168.847V34.324Z" fill="white" fill-opacity="0.8"/>
<path d="M174.808 39.23H175.435L175.798 38.394C175.879 38.2033 175.978 38.0603 176.095 37.965C176.212 37.8623 176.344 37.8 176.491 37.778V37.734C175.985 37.69 175.604 37.525 175.347 37.239C175.09 36.953 174.962 36.568 174.962 36.084C174.962 35.534 175.127 35.105 175.457 34.797C175.787 34.4817 176.242 34.324 176.821 34.324H179.329V40H178.449V37.822H176.975L176.381 39.219C176.249 39.527 176.102 39.736 175.941 39.846C175.787 39.9487 175.611 40 175.413 40H174.808V39.23ZM178.449 37.074V35.094H176.953C176.623 35.094 176.366 35.1563 176.183 35.281C176 35.4057 175.908 35.6147 175.908 35.908V36.271C175.908 36.5643 176 36.7733 176.183 36.898C176.366 37.0153 176.623 37.074 176.953 37.074H178.449Z" fill="white" fill-opacity="0.8"/>
</svg>
