<svg width="48" height="48" viewBox="0 0 48 48" fill="none" xmlns="http://www.w3.org/2000/svg">
<path d="M4 12L12 4L12 12L4 12Z" fill="#F76F34"/>
<path d="M4 36L12 44L12 36L4 36Z" fill="#F76F34"/>
<path d="M44 36L36 44L36 36L44 36Z" fill="#F76F34"/>
<path d="M28 36L20 44L20 36L28 36Z" fill="#F76F34"/>
<path d="M44 12L36 4L36 12L44 12Z" fill="#F76F34"/>
<path d="M20 28L28 20L28 28L20 28Z" fill="#F76F34"/>
<rect x="12" y="4" width="8" height="8" fill="#F76F34"/>
<rect x="4" y="12" width="8" height="8" fill="#F76F34"/>
<rect x="4" y="20" width="8" height="8" fill="#F76F34"/>
<rect x="4" y="28" width="8" height="8" fill="#F76F34"/>
<rect x="12" y="36" width="8" height="8" fill="#F76F34"/>
<rect x="20" y="4" width="8" height="8" fill="#F76F34"/>
<rect x="28" y="4" width="8" height="8" fill="#F76F34"/>
<rect x="28" y="20" width="8" height="8" fill="#F76F34"/>
<rect x="36" y="28" width="8" height="8" fill="#F76F34"/>
<rect x="36" y="20" width="8" height="8" fill="#F76F34"/>
</svg>
