<svg width="202" height="48" viewBox="0 0 202 48" fill="none" xmlns="http://www.w3.org/2000/svg">
<path d="M4 12L12 4L12 12L4 12Z" fill="#F76F34"/>
<path d="M4 36L12 44L12 36L4 36Z" fill="#F76F34"/>
<path d="M44 36L36 44L36 36L44 36Z" fill="#F76F34"/>
<path d="M28 36L20 44L20 36L28 36Z" fill="#F76F34"/>
<path d="M44 12L36 4L36 12L44 12Z" fill="#F76F34"/>
<path d="M20 28L28 20L28 28L20 28Z" fill="#F76F34"/>
<rect x="12" y="4" width="8" height="8" fill="#F76F34"/>
<rect x="4" y="12" width="8" height="8" fill="#F76F34"/>
<rect x="4" y="20" width="8" height="8" fill="#F76F34"/>
<rect x="4" y="28" width="8" height="8" fill="#F76F34"/>
<rect x="12" y="36" width="8" height="8" fill="#F76F34"/>
<rect x="20" y="4" width="8" height="8" fill="#F76F34"/>
<rect x="28" y="4" width="8" height="8" fill="#F76F34"/>
<rect x="28" y="20" width="8" height="8" fill="#F76F34"/>
<rect x="36" y="28" width="8" height="8" fill="#F76F34"/>
<rect x="36" y="20" width="8" height="8" fill="#F76F34"/>
<path d="M56.617 11.842H68.272V26.5H65.08V14.677H59.809V26.5H56.617V11.842Z" fill="white"/>
<path d="M72.1357 26.5V11.842H79.0657C79.7517 11.842 80.3677 11.961 80.9137 12.199C81.4597 12.423 81.9217 12.738 82.2997 13.144C82.6917 13.55 82.9927 14.047 83.2027 14.635C83.4127 15.209 83.5177 15.839 83.5177 16.525C83.5177 17.225 83.4127 17.862 83.2027 18.436C82.9927 19.01 82.6917 19.5 82.2997 19.906C81.9217 20.312 81.4597 20.634 80.9137 20.872C80.3677 21.096 79.7517 21.208 79.0657 21.208H75.3277V26.5H72.1357ZM75.3277 18.436H78.6877C79.1637 18.436 79.5347 18.317 79.8007 18.079C80.0807 17.827 80.2207 17.463 80.2207 16.987V16.063C80.2207 15.587 80.0807 15.23 79.8007 14.992C79.5347 14.74 79.1637 14.614 78.6877 14.614H75.3277V18.436Z" fill="white"/>
<path d="M92.4269 26.752C91.4609 26.752 90.5789 26.591 89.7809 26.269C88.9829 25.947 88.3039 25.471 87.7439 24.841C87.1839 24.197 86.7499 23.406 86.4419 22.468C86.1339 21.516 85.9799 20.417 85.9799 19.171C85.9799 17.925 86.1339 16.833 86.4419 15.895C86.7499 14.943 87.1839 14.152 87.7439 13.522C88.3039 12.878 88.9829 12.395 89.7809 12.073C90.5789 11.751 91.4609 11.59 92.4269 11.59C93.3929 11.59 94.2749 11.751 95.0729 12.073C95.8709 12.395 96.5499 12.878 97.1099 13.522C97.6699 14.152 98.1039 14.943 98.4119 15.895C98.7199 16.833 98.8739 17.925 98.8739 19.171C98.8739 20.417 98.7199 21.516 98.4119 22.468C98.1039 23.406 97.6699 24.197 97.1099 24.841C96.5499 25.471 95.8709 25.947 95.0729 26.269C94.2749 26.591 93.3929 26.752 92.4269 26.752ZM92.4269 23.917C93.3929 23.917 94.1419 23.602 94.6739 22.972C95.2199 22.342 95.4929 21.439 95.4929 20.263V18.079C95.4929 16.903 95.2199 16 94.6739 15.37C94.1419 14.74 93.3929 14.425 92.4269 14.425C91.4609 14.425 90.7049 14.74 90.1589 15.37C89.6269 16 89.3609 16.903 89.3609 18.079V20.263C89.3609 21.439 89.6269 22.342 90.1589 22.972C90.7049 23.602 91.4609 23.917 92.4269 23.917Z" fill="white"/>
<path d="M113.13 16.882H113.067L111.996 19.024L109.14 24.211L106.347 19.045L105.234 16.735H105.171V26.5H102.168V11.842H105.549L109.14 18.709H109.182L112.731 11.842H116.133V26.5H113.13V16.882Z" fill="white"/>
<path d="M120.004 11.842H128.614V14.677H123.196V26.5H120.004V11.842Z" fill="white"/>
<path d="M131.421 26.5V11.842H138.351C139.037 11.842 139.653 11.961 140.199 12.199C140.745 12.423 141.207 12.738 141.585 13.144C141.977 13.55 142.278 14.047 142.488 14.635C142.698 15.209 142.803 15.839 142.803 16.525C142.803 17.225 142.698 17.862 142.488 18.436C142.278 19.01 141.977 19.5 141.585 19.906C141.207 20.312 140.745 20.634 140.199 20.872C139.653 21.096 139.037 21.208 138.351 21.208H134.613V26.5H131.421ZM134.613 18.436H137.973C138.449 18.436 138.82 18.317 139.086 18.079C139.366 17.827 139.506 17.463 139.506 16.987V16.063C139.506 15.587 139.366 15.23 139.086 14.992C138.82 14.74 138.449 14.614 137.973 14.614H134.613V18.436Z" fill="white"/>
<path d="M153.324 26.5L152.274 23.014H147.381L146.331 26.5H143.097L147.927 11.842H151.875L156.642 26.5H153.324ZM149.859 14.74H149.754L148.137 20.305H151.497L149.859 14.74Z" fill="white"/>
<path d="M159.3 11.842H166.419C167.637 11.842 168.582 12.185 169.254 12.871C169.94 13.557 170.283 14.467 170.283 15.601C170.283 16.161 170.206 16.637 170.052 17.029C169.912 17.421 169.716 17.743 169.464 17.995C169.226 18.247 168.939 18.436 168.603 18.562C168.281 18.674 167.931 18.737 167.553 18.751V18.877C167.903 18.877 168.267 18.94 168.645 19.066C169.037 19.192 169.394 19.395 169.716 19.675C170.038 19.941 170.304 20.291 170.514 20.725C170.738 21.159 170.85 21.691 170.85 22.321C170.85 22.895 170.752 23.441 170.556 23.959C170.374 24.463 170.115 24.904 169.779 25.282C169.443 25.66 169.044 25.961 168.582 26.185C168.12 26.395 167.616 26.5 167.07 26.5H159.3V11.842ZM162.492 23.812H166.167C166.587 23.812 166.916 23.7 167.154 23.476C167.406 23.238 167.532 22.909 167.532 22.489V21.775C167.532 21.355 167.406 21.033 167.154 20.809C166.916 20.571 166.587 20.452 166.167 20.452H162.492V23.812ZM162.492 17.848H165.663C166.083 17.848 166.412 17.729 166.65 17.491C166.888 17.253 167.007 16.924 167.007 16.504V15.874C167.007 15.454 166.888 15.125 166.65 14.887C166.412 14.649 166.083 14.53 165.663 14.53H162.492V17.848Z" fill="white"/>
<path d="M173.937 11.842H177.045V19.003L176.709 22.09H176.772L178.221 19.297L183.051 11.842H185.907V26.5H182.799V19.339L183.135 16.252H183.072L181.623 19.045L176.793 26.5H173.937V11.842Z" fill="white"/>
<path d="M189.764 11.842H192.872V19.003L192.536 22.09H192.599L194.048 19.297L198.878 11.842H201.734V26.5H198.626V19.339L198.962 16.252H198.899L197.45 19.045L192.62 26.5H189.764V11.842ZM195.791 10.96C194.867 10.96 194.118 10.757 193.544 10.351C192.97 9.94497 192.522 9.36397 192.2 8.60797L191.759 7.53697L194.174 6.63397L194.846 8.75497C194.93 8.79697 195.063 8.83197 195.245 8.85997C195.427 8.88797 195.609 8.90197 195.791 8.90197C195.973 8.90197 196.155 8.88797 196.337 8.85997C196.519 8.83197 196.652 8.79697 196.736 8.75497L197.408 6.63397L199.823 7.53697L199.382 8.60797C199.06 9.36397 198.612 9.94497 198.038 10.351C197.464 10.757 196.715 10.96 195.791 10.96Z" fill="white"/>
<path d="M59.047 40.132C58.651 40.132 58.2953 40.0623 57.98 39.923C57.6647 39.7837 57.397 39.5857 57.177 39.329C56.9643 39.0723 56.7993 38.7607 56.682 38.394C56.572 38.0273 56.517 37.6167 56.517 37.162C56.517 36.7073 56.572 36.2967 56.682 35.93C56.7993 35.5633 56.9643 35.2517 57.177 34.995C57.397 34.7383 57.6647 34.5403 57.98 34.401C58.2953 34.2617 58.651 34.192 59.047 34.192C59.6117 34.192 60.0627 34.3167 60.4 34.566C60.7447 34.808 61.0013 35.127 61.17 35.523L60.433 35.897C60.3303 35.6037 60.1617 35.3763 59.927 35.215C59.6923 35.0537 59.399 34.973 59.047 34.973C58.783 34.973 58.552 35.017 58.354 35.105C58.156 35.1857 57.991 35.303 57.859 35.457C57.727 35.6037 57.628 35.7833 57.562 35.996C57.496 36.2013 57.463 36.4287 57.463 36.678V37.646C57.463 38.1447 57.595 38.5553 57.859 38.878C58.1303 39.1933 58.5263 39.351 59.047 39.351C59.7583 39.351 60.2717 39.021 60.587 38.361L61.225 38.79C61.0417 39.2007 60.7667 39.527 60.4 39.769C60.0407 40.011 59.5897 40.132 59.047 40.132Z" fill="white" fill-opacity="0.8"/>
<path d="M63.6882 35.094H61.7522V34.324H66.5042V35.094H64.5682V40H63.6882V35.094Z" fill="white" fill-opacity="0.8"/>
<path d="M67.6557 34.324H68.5357V35.248H68.5797C68.7264 34.8887 68.939 34.6247 69.2177 34.456C69.5037 34.28 69.8447 34.192 70.2407 34.192C70.5927 34.192 70.9117 34.2617 71.1977 34.401C71.4837 34.5403 71.7257 34.7383 71.9237 34.995C72.129 35.2517 72.283 35.5633 72.3857 35.93C72.4957 36.2967 72.5507 36.7073 72.5507 37.162C72.5507 37.6167 72.4957 38.0273 72.3857 38.394C72.283 38.7607 72.129 39.0723 71.9237 39.329C71.7257 39.5857 71.4837 39.7837 71.1977 39.923C70.9117 40.0623 70.5927 40.132 70.2407 40.132C69.4707 40.132 68.917 39.78 68.5797 39.076H68.5357V42.2H67.6557V34.324ZM69.9987 39.34C70.4974 39.34 70.8897 39.186 71.1757 38.878C71.4617 38.5627 71.6047 38.152 71.6047 37.646V36.678C71.6047 36.172 71.4617 35.765 71.1757 35.457C70.8897 35.1417 70.4974 34.984 69.9987 34.984C69.8007 34.984 69.61 35.0133 69.4267 35.072C69.2507 35.1233 69.0967 35.1967 68.9647 35.292C68.8327 35.3873 68.7264 35.5047 68.6457 35.644C68.5724 35.776 68.5357 35.919 68.5357 36.073V38.185C68.5357 38.3683 68.5724 38.5333 68.6457 38.68C68.7264 38.8193 68.8327 38.9403 68.9647 39.043C69.0967 39.1383 69.2507 39.2117 69.4267 39.263C69.61 39.3143 69.8007 39.34 69.9987 39.34Z" fill="white" fill-opacity="0.8"/>
<path d="M76.1816 40.132C75.8002 40.132 75.4519 40.0623 75.1366 39.923C74.8212 39.7837 74.5499 39.5857 74.3226 39.329C74.1026 39.065 73.9302 38.7533 73.8056 38.394C73.6809 38.0273 73.6186 37.6167 73.6186 37.162C73.6186 36.7147 73.6809 36.3077 73.8056 35.941C73.9302 35.5743 74.1026 35.2627 74.3226 35.006C74.5499 34.742 74.8212 34.5403 75.1366 34.401C75.4519 34.2617 75.8002 34.192 76.1816 34.192C76.5629 34.192 76.9076 34.2617 77.2156 34.401C77.5309 34.5403 77.8022 34.742 78.0296 35.006C78.2569 35.2627 78.4329 35.5743 78.5576 35.941C78.6822 36.3077 78.7446 36.7147 78.7446 37.162C78.7446 37.6167 78.6822 38.0273 78.5576 38.394C78.4329 38.7533 78.2569 39.065 78.0296 39.329C77.8022 39.5857 77.5309 39.7837 77.2156 39.923C76.9076 40.0623 76.5629 40.132 76.1816 40.132ZM76.1816 39.351C76.6582 39.351 77.0469 39.2043 77.3476 38.911C77.6482 38.6177 77.7986 38.1703 77.7986 37.569V36.755C77.7986 36.1537 77.6482 35.7063 77.3476 35.413C77.0469 35.1197 76.6582 34.973 76.1816 34.973C75.7049 34.973 75.3162 35.1197 75.0156 35.413C74.7149 35.7063 74.5646 36.1537 74.5646 36.755V37.569C74.5646 38.1703 74.7149 38.6177 75.0156 38.911C75.3162 39.2043 75.7049 39.351 76.1816 39.351Z" fill="white" fill-opacity="0.8"/>
<path d="M80.1918 34.324H81.0498V37.47L80.9618 38.834H81.0058L81.7098 37.624L83.9758 34.324H84.7898V40H83.9318V36.854L84.0198 35.49H83.9758L83.2718 36.7L81.0058 40H80.1918V34.324Z" fill="white" fill-opacity="0.8"/>
<path d="M87.8796 35.094H85.9436V34.324H90.6956V35.094H88.7596V40H87.8796V35.094Z" fill="white" fill-opacity="0.8"/>
<path d="M93.8415 40.132C93.4528 40.132 93.1008 40.0623 92.7855 39.923C92.4775 39.7837 92.2098 39.5857 91.9825 39.329C91.7625 39.065 91.5901 38.7533 91.4655 38.394C91.3481 38.0273 91.2895 37.6167 91.2895 37.162C91.2895 36.7147 91.3481 36.3077 91.4655 35.941C91.5901 35.5743 91.7625 35.2627 91.9825 35.006C92.2098 34.742 92.4775 34.5403 92.7855 34.401C93.1008 34.2617 93.4528 34.192 93.8415 34.192C94.2228 34.192 94.5638 34.2617 94.8645 34.401C95.1651 34.5403 95.4218 34.7347 95.6345 34.984C95.8471 35.226 96.0085 35.5157 96.1185 35.853C96.2358 36.1903 96.2945 36.5607 96.2945 36.964V37.382H92.2135V37.646C92.2135 37.888 92.2501 38.1153 92.3235 38.328C92.4041 38.5333 92.5141 38.713 92.6535 38.867C92.8001 39.021 92.9761 39.142 93.1815 39.23C93.3941 39.318 93.6325 39.362 93.8965 39.362C94.2558 39.362 94.5675 39.2777 94.8315 39.109C95.1028 38.9403 95.3118 38.6983 95.4585 38.383L96.0855 38.834C95.9021 39.2227 95.6161 39.538 95.2275 39.78C94.8388 40.0147 94.3768 40.132 93.8415 40.132ZM93.8415 34.929C93.5995 34.929 93.3795 34.973 93.1815 35.061C92.9835 35.1417 92.8111 35.259 92.6645 35.413C92.5251 35.567 92.4151 35.7503 92.3345 35.963C92.2538 36.1683 92.2135 36.3957 92.2135 36.645V36.722H95.3485V36.601C95.3485 36.095 95.2091 35.6917 94.9305 35.391C94.6591 35.083 94.2961 34.929 93.8415 34.929Z" fill="white" fill-opacity="0.8"/>
<path d="M96.8976 39.23H97.6456C97.7409 39.098 97.8252 38.9403 97.8986 38.757C97.9719 38.5737 98.0342 38.3537 98.0856 38.097C98.1369 37.8403 98.1772 37.536 98.2066 37.184C98.2359 36.832 98.2506 36.4177 98.2506 35.941V34.324H102.09V40H101.21V35.094H99.0866V35.963C99.0866 36.513 99.0646 36.9933 99.0206 37.404C98.9839 37.8147 98.9289 38.1667 98.8556 38.46C98.7896 38.7533 98.7089 38.9953 98.6136 39.186C98.5182 39.3693 98.4156 39.516 98.3056 39.626C98.1662 39.7653 98.0122 39.8643 97.8436 39.923C97.6749 39.9743 97.4732 40 97.2386 40H96.8976V39.23Z" fill="white" fill-opacity="0.8"/>
<path d="M103.964 34.324H104.844V36.381H106.461C107.033 36.381 107.488 36.5423 107.825 36.865C108.163 37.1877 108.331 37.6313 108.331 38.196C108.331 38.768 108.166 39.2117 107.836 39.527C107.506 39.8423 107.052 40 106.472 40H103.964V34.324ZM106.34 39.23C106.67 39.23 106.927 39.1677 107.11 39.043C107.294 38.9183 107.385 38.7093 107.385 38.416V37.954C107.385 37.6607 107.294 37.4553 107.11 37.338C106.927 37.2133 106.67 37.151 106.34 37.151H104.844V39.23H106.34Z" fill="white" fill-opacity="0.8"/>
<path d="M109.679 34.324H110.559V36.689H113.397V34.324H114.277V40H113.397V37.459H110.559V40H109.679V34.324Z" fill="white" fill-opacity="0.8"/>
<path d="M120.271 40C119.941 40 119.703 39.912 119.556 39.736C119.417 39.56 119.329 39.34 119.292 39.076H119.237C119.112 39.428 118.907 39.692 118.621 39.868C118.335 40.044 117.994 40.132 117.598 40.132C116.997 40.132 116.527 39.978 116.19 39.67C115.86 39.362 115.695 38.944 115.695 38.416C115.695 37.8807 115.889 37.47 116.278 37.184C116.674 36.898 117.286 36.755 118.115 36.755H119.237V36.194C119.237 35.7907 119.127 35.4827 118.907 35.27C118.687 35.0573 118.35 34.951 117.895 34.951C117.55 34.951 117.261 35.028 117.026 35.182C116.799 35.336 116.608 35.5413 116.454 35.798L115.926 35.303C116.08 34.995 116.326 34.7347 116.663 34.522C117 34.302 117.426 34.192 117.939 34.192C118.628 34.192 119.164 34.3607 119.545 34.698C119.926 35.0353 120.117 35.5047 120.117 36.106V39.23H120.766V40H120.271ZM117.741 39.384C117.961 39.384 118.163 39.3583 118.346 39.307C118.529 39.2557 118.687 39.1823 118.819 39.087C118.951 38.9917 119.054 38.8817 119.127 38.757C119.2 38.6323 119.237 38.4967 119.237 38.35V37.415H118.071C117.565 37.415 117.195 37.4883 116.96 37.635C116.733 37.7817 116.619 37.9943 116.619 38.273V38.504C116.619 38.7827 116.718 38.999 116.916 39.153C117.121 39.307 117.396 39.384 117.741 39.384Z" fill="white" fill-opacity="0.8"/>
<path d="M121.516 39.23H122.143L122.506 38.394C122.587 38.2033 122.686 38.0603 122.803 37.965C122.92 37.8623 123.052 37.8 123.199 37.778V37.734C122.693 37.69 122.312 37.525 122.055 37.239C121.798 36.953 121.67 36.568 121.67 36.084C121.67 35.534 121.835 35.105 122.165 34.797C122.495 34.4817 122.95 34.324 123.529 34.324H126.037V40H125.157V37.822H123.683L123.089 39.219C122.957 39.527 122.81 39.736 122.649 39.846C122.495 39.9487 122.319 40 122.121 40H121.516V39.23ZM125.157 37.074V35.094H123.661C123.331 35.094 123.074 35.1563 122.891 35.281C122.708 35.4057 122.616 35.6147 122.616 35.908V36.271C122.616 36.5643 122.708 36.7733 122.891 36.898C123.074 37.0153 123.331 37.074 123.661 37.074H125.157Z" fill="white" fill-opacity="0.8"/>
<path d="M130.508 34.324H131.388V36.7H132.521L133.621 34.962C133.702 34.83 133.779 34.7237 133.852 34.643C133.926 34.555 133.999 34.489 134.072 34.445C134.146 34.401 134.223 34.3717 134.303 34.357C134.384 34.335 134.476 34.324 134.578 34.324H135.095V35.094H134.413L133.522 36.502C133.464 36.5973 133.412 36.6743 133.368 36.733C133.324 36.7917 133.28 36.843 133.236 36.887C133.192 36.9237 133.145 36.9567 133.093 36.986C133.042 37.008 132.98 37.03 132.906 37.052V37.096C133.06 37.118 133.192 37.1693 133.302 37.25C133.42 37.3233 133.541 37.47 133.665 37.69L134.534 39.23H135.183V40H134.545C134.355 40 134.179 39.9523 134.017 39.857C133.863 39.7543 133.713 39.571 133.566 39.307L132.521 37.448H131.388V40H130.508V34.324Z" fill="white" fill-opacity="0.8"/>
<path d="M138.529 40.132C138.148 40.132 137.8 40.0623 137.484 39.923C137.169 39.7837 136.898 39.5857 136.67 39.329C136.45 39.065 136.278 38.7533 136.153 38.394C136.029 38.0273 135.966 37.6167 135.966 37.162C135.966 36.7147 136.029 36.3077 136.153 35.941C136.278 35.5743 136.45 35.2627 136.67 35.006C136.898 34.742 137.169 34.5403 137.484 34.401C137.8 34.2617 138.148 34.192 138.529 34.192C138.911 34.192 139.255 34.2617 139.563 34.401C139.879 34.5403 140.15 34.742 140.377 35.006C140.605 35.2627 140.781 35.5743 140.905 35.941C141.03 36.3077 141.092 36.7147 141.092 37.162C141.092 37.6167 141.03 38.0273 140.905 38.394C140.781 38.7533 140.605 39.065 140.377 39.329C140.15 39.5857 139.879 39.7837 139.563 39.923C139.255 40.0623 138.911 40.132 138.529 40.132ZM138.529 39.351C139.006 39.351 139.395 39.2043 139.695 38.911C139.996 38.6177 140.146 38.1703 140.146 37.569V36.755C140.146 36.1537 139.996 35.7063 139.695 35.413C139.395 35.1197 139.006 34.973 138.529 34.973C138.053 34.973 137.664 35.1197 137.363 35.413C137.063 35.7063 136.912 36.1537 136.912 36.755V37.569C136.912 38.1703 137.063 38.6177 137.363 38.911C137.664 39.2043 138.053 39.351 138.529 39.351Z" fill="white" fill-opacity="0.8"/>
<path d="M142.539 34.324H143.694L145.422 37.272H145.465L147.181 34.324H148.326V40H147.467V35.38H147.412L147.093 35.996L145.432 38.812L143.771 35.996L143.452 35.38H143.397V40H142.539V34.324Z" fill="white" fill-opacity="0.8"/>
<path d="M150.199 34.324H154.632V40H153.752V35.094H151.079V40H150.199V34.324Z" fill="white" fill-opacity="0.8"/>
<path d="M160.629 40C160.299 40 160.061 39.912 159.914 39.736C159.775 39.56 159.687 39.34 159.65 39.076H159.595C159.471 39.428 159.265 39.692 158.979 39.868C158.693 40.044 158.352 40.132 157.956 40.132C157.355 40.132 156.886 39.978 156.548 39.67C156.218 39.362 156.053 38.944 156.053 38.416C156.053 37.8807 156.248 37.47 156.636 37.184C157.032 36.898 157.645 36.755 158.473 36.755H159.595V36.194C159.595 35.7907 159.485 35.4827 159.265 35.27C159.045 35.0573 158.708 34.951 158.253 34.951C157.909 34.951 157.619 35.028 157.384 35.182C157.157 35.336 156.966 35.5413 156.812 35.798L156.284 35.303C156.438 34.995 156.684 34.7347 157.021 34.522C157.359 34.302 157.784 34.192 158.297 34.192C158.987 34.192 159.522 34.3607 159.903 34.698C160.285 35.0353 160.475 35.5047 160.475 36.106V39.23H161.124V40H160.629ZM158.099 39.384C158.319 39.384 158.521 39.3583 158.704 39.307C158.888 39.2557 159.045 39.1823 159.177 39.087C159.309 38.9917 159.412 38.8817 159.485 38.757C159.559 38.6323 159.595 38.4967 159.595 38.35V37.415H158.429C157.923 37.415 157.553 37.4883 157.318 37.635C157.091 37.7817 156.977 37.9943 156.977 38.273V38.504C156.977 38.7827 157.076 38.999 157.274 39.153C157.48 39.307 157.755 39.384 158.099 39.384Z" fill="white" fill-opacity="0.8"/>
<path d="M162.38 34.324H163.26V36.689H166.098V34.324H166.978V40H166.098V37.459H163.26V40H162.38V34.324Z" fill="white" fill-opacity="0.8"/>
<path d="M168.847 34.324H169.705V37.47L169.617 38.834H169.661L170.365 37.624L172.631 34.324H173.445V40H172.587V36.854L172.675 35.49H172.631L171.927 36.7L169.661 40H168.847V34.324Z" fill="white" fill-opacity="0.8"/>
<path d="M174.808 39.23H175.435L175.798 38.394C175.879 38.2033 175.978 38.0603 176.095 37.965C176.212 37.8623 176.344 37.8 176.491 37.778V37.734C175.985 37.69 175.604 37.525 175.347 37.239C175.09 36.953 174.962 36.568 174.962 36.084C174.962 35.534 175.127 35.105 175.457 34.797C175.787 34.4817 176.242 34.324 176.821 34.324H179.329V40H178.449V37.822H176.975L176.381 39.219C176.249 39.527 176.102 39.736 175.941 39.846C175.787 39.9487 175.611 40 175.413 40H174.808V39.23ZM178.449 37.074V35.094H176.953C176.623 35.094 176.366 35.1563 176.183 35.281C176 35.4057 175.908 35.6147 175.908 35.908V36.271C175.908 36.5643 176 36.7733 176.183 36.898C176.366 37.0153 176.623 37.074 176.953 37.074H178.449Z" fill="white" fill-opacity="0.8"/>
</svg>
