<svg width="970" height="228" viewBox="0 0 970 228" fill="none" xmlns="http://www.w3.org/2000/svg">
<path d="M19.5 57L57.5 19L57.5 57L19.5 57Z" fill="#F76F34"/>
<path d="M19.5 171L57.5 209L57.5 171L19.5 171Z" fill="#F76F34"/>
<path d="M209.5 171L171.5 209L171.5 171L209.5 171Z" fill="#F76F34"/>
<path d="M133.5 171L95.5 209L95.5 171L133.5 171Z" fill="#F76F34"/>
<path d="M209.5 57L171.5 19L171.5 57L209.5 57Z" fill="#F76F34"/>
<path d="M95.5 133L133.5 95L133.5 133L95.5 133Z" fill="#F76F34"/>
<rect x="57.5" y="19" width="38" height="38" fill="#F76F34"/>
<rect x="19.5" y="57" width="38" height="38" fill="#F76F34"/>
<rect x="19.5" y="95" width="38" height="38" fill="#F76F34"/>
<rect x="19.5" y="133" width="38" height="38" fill="#F76F34"/>
<rect x="57.5" y="171" width="38" height="38" fill="#F76F34"/>
<rect x="95.5" y="19" width="38" height="38" fill="#F76F34"/>
<rect x="133.5" y="19" width="38" height="38" fill="#F76F34"/>
<rect x="133.5" y="95" width="38" height="38" fill="#F76F34"/>
<rect x="171.5" y="133" width="38" height="38" fill="#F76F34"/>
<rect x="171.5" y="95" width="38" height="38" fill="#F76F34"/>
<path d="M269.431 55.3745H324.792V125H309.63V68.8408H284.593V125H269.431V55.3745ZM343.144 125V55.3745H376.062C379.32 55.3745 382.246 55.9398 384.84 57.0703C387.433 58.1343 389.628 59.6305 391.423 61.559C393.285 63.4875 394.715 65.8483 395.713 68.6413C396.71 71.3678 397.209 74.3603 397.209 77.6188C397.209 80.9438 396.71 83.9695 395.713 86.696C394.715 89.4225 393.285 91.75 391.423 93.6785C389.628 95.607 387.433 97.1365 384.84 98.267C382.246 99.331 379.32 99.863 376.062 99.863H358.306V125H343.144ZM358.306 86.696H374.266C376.527 86.696 378.29 86.1308 379.553 85.0003C380.883 83.8033 381.548 82.0743 381.548 79.8133V75.4243C381.548 73.1633 380.883 71.4675 379.553 70.337C378.29 69.14 376.527 68.5415 374.266 68.5415H358.306V86.696ZM439.528 126.197C434.939 126.197 430.75 125.432 426.959 123.903C423.169 122.373 419.944 120.112 417.284 117.12C414.624 114.061 412.562 110.304 411.099 105.848C409.636 101.326 408.905 96.1058 408.905 90.1873C408.905 84.2688 409.636 79.0818 411.099 74.6263C412.562 70.1043 414.624 66.347 417.284 63.3545C419.944 60.2955 423.169 58.0013 426.959 56.4718C430.75 54.9423 434.939 54.1775 439.528 54.1775C444.116 54.1775 448.306 54.9423 452.096 56.4718C455.887 58.0013 459.112 60.2955 461.772 63.3545C464.432 66.347 466.494 70.1043 467.957 74.6263C469.42 79.0818 470.151 84.2688 470.151 90.1873C470.151 96.1058 469.42 101.326 467.957 105.848C466.494 110.304 464.432 114.061 461.772 117.12C459.112 120.112 455.887 122.373 452.096 123.903C448.306 125.432 444.116 126.197 439.528 126.197ZM439.528 112.731C444.116 112.731 447.674 111.235 450.201 108.242C452.795 105.25 454.091 100.96 454.091 95.3743V85.0003C454.091 79.4143 452.795 75.125 450.201 72.1325C447.674 69.14 444.116 67.6438 439.528 67.6438C434.939 67.6438 431.348 69.14 428.755 72.1325C426.228 75.125 424.964 79.4143 424.964 85.0003V95.3743C424.964 100.96 426.228 105.25 428.755 108.242C431.348 111.235 434.939 112.731 439.528 112.731ZM537.868 79.3145H537.569L532.482 89.489L518.916 114.127L505.649 89.5888L500.362 78.6163H500.063V125H485.799V55.3745H501.858L518.916 87.9928H519.115L535.973 55.3745H552.132V125H537.868V79.3145ZM570.52 55.3745H611.417V68.8408H585.682V125H570.52V55.3745ZM624.751 125V55.3745H657.669C660.927 55.3745 663.853 55.9398 666.447 57.0703C669.04 58.1343 671.235 59.6305 673.03 61.559C674.892 63.4875 676.322 65.8483 677.319 68.6413C678.317 71.3678 678.816 74.3603 678.816 77.6188C678.816 80.9438 678.317 83.9695 677.319 86.696C676.322 89.4225 674.892 91.75 673.03 93.6785C671.235 95.607 669.04 97.1365 666.447 98.267C663.853 99.331 660.927 99.863 657.669 99.863H639.913V125H624.751ZM639.913 86.696H655.873C658.134 86.696 659.896 86.1308 661.16 85.0003C662.49 83.8033 663.155 82.0743 663.155 79.8133V75.4243C663.155 73.1633 662.49 71.4675 661.16 70.337C659.896 69.14 658.134 68.5415 655.873 68.5415H639.913V86.696ZM728.791 125L723.804 108.442H700.562L695.574 125H680.213L703.155 55.3745H721.908L744.552 125H728.791ZM712.332 69.14H711.834L704.153 95.5738H720.113L712.332 69.14ZM757.177 55.3745H790.992C796.778 55.3745 801.267 57.0038 804.459 60.2623C807.717 63.5208 809.346 67.8433 809.346 73.2298C809.346 75.8898 808.981 78.1508 808.249 80.0128C807.584 81.8748 806.653 83.4043 805.456 84.6013C804.326 85.7983 802.962 86.696 801.366 87.2945C799.837 87.8265 798.174 88.1258 796.379 88.1923V88.7908C798.041 88.7908 799.77 89.09 801.566 89.6885C803.428 90.287 805.124 91.2513 806.653 92.5813C808.183 93.8448 809.446 95.5073 810.444 97.5688C811.508 99.6303 812.04 102.157 812.04 105.15C812.04 107.876 811.574 110.47 810.643 112.93C809.779 115.324 808.548 117.419 806.952 119.215C805.356 121.01 803.461 122.44 801.267 123.504C799.072 124.501 796.678 125 794.085 125H757.177V55.3745ZM772.339 112.232H789.795C791.79 112.232 793.353 111.7 794.484 110.636C795.681 109.506 796.279 107.943 796.279 105.948V102.556C796.279 100.561 795.681 99.0318 794.484 97.9678C793.353 96.8373 791.79 96.272 789.795 96.272H772.339V112.232ZM772.339 83.903H787.401C789.396 83.903 790.959 83.3378 792.09 82.2073C793.22 81.0768 793.785 79.514 793.785 77.519V74.5265C793.785 72.5315 793.22 70.9688 792.09 69.8383C790.959 68.7078 789.396 68.1425 787.401 68.1425H772.339V83.903ZM826.702 55.3745H841.465V89.3893L839.869 104.053H840.168L847.051 90.7858L869.993 55.3745H883.559V125H868.796V90.9853L870.392 76.322H870.093L863.21 89.5888L840.268 125H826.702V55.3745ZM901.877 55.3745H916.64V89.3893L915.044 104.053H915.343L922.226 90.7858L945.168 55.3745H958.734V125H943.971V90.9853L945.567 76.322H945.268L938.385 89.5888L915.443 125H901.877V55.3745ZM930.505 51.185C926.116 51.185 922.558 50.2208 919.832 48.2923C917.105 46.3638 914.977 43.604 913.448 40.013L911.353 34.9258L922.824 30.6365L926.016 40.7113C926.415 40.9108 927.047 41.077 927.912 41.21C928.776 41.343 929.641 41.4095 930.505 41.4095C931.37 41.4095 932.234 41.343 933.099 41.21C933.963 41.077 934.595 40.9108 934.994 40.7113L938.186 30.6365L949.657 34.9258L947.562 40.013C946.033 43.604 943.905 46.3638 941.178 48.2923C938.452 50.2208 934.894 51.185 930.505 51.185Z" fill="#404145"/>
<path d="M281.603 192.154C279.64 192.154 277.877 191.809 276.314 191.118C274.751 190.428 273.424 189.446 272.334 188.174C271.28 186.902 270.462 185.357 269.88 183.54C269.335 181.722 269.063 179.687 269.063 177.433C269.063 175.18 269.335 173.144 269.88 171.327C270.462 169.51 271.28 167.965 272.334 166.693C273.424 165.42 274.751 164.439 276.314 163.748C277.877 163.058 279.64 162.713 281.603 162.713C284.401 162.713 286.637 163.33 288.309 164.566C290.017 165.766 291.289 167.347 292.125 169.31L288.472 171.163C287.963 169.709 287.127 168.583 285.964 167.783C284.801 166.983 283.347 166.584 281.603 166.584C280.294 166.584 279.149 166.802 278.168 167.238C277.186 167.638 276.368 168.219 275.714 168.983C275.06 169.709 274.569 170.6 274.242 171.654C273.915 172.672 273.751 173.799 273.751 175.034V179.832C273.751 182.304 274.406 184.339 275.714 185.939C277.059 187.502 279.022 188.283 281.603 188.283C285.128 188.283 287.673 186.648 289.236 183.376L292.398 185.503C291.489 187.538 290.126 189.156 288.309 190.355C286.528 191.555 284.292 192.154 281.603 192.154ZM304.607 167.183H295.011V163.367H318.564V167.183H308.969V191.5H304.607V167.183ZM324.272 163.367H328.633V167.947H328.852C329.579 166.166 330.633 164.857 332.014 164.021C333.431 163.149 335.122 162.713 337.084 162.713C338.829 162.713 340.41 163.058 341.828 163.748C343.245 164.439 344.445 165.42 345.426 166.693C346.444 167.965 347.207 169.51 347.716 171.327C348.261 173.144 348.534 175.18 348.534 177.433C348.534 179.687 348.261 181.722 347.716 183.54C347.207 185.357 346.444 186.902 345.426 188.174C344.445 189.446 343.245 190.428 341.828 191.118C340.41 191.809 338.829 192.154 337.084 192.154C333.268 192.154 330.524 190.41 328.852 186.92H328.633V202.404H324.272V163.367ZM335.885 188.229C338.357 188.229 340.301 187.465 341.719 185.939C343.136 184.376 343.845 182.34 343.845 179.832V175.034C343.845 172.526 343.136 170.509 341.719 168.983C340.301 167.42 338.357 166.638 335.885 166.638C334.903 166.638 333.958 166.783 333.05 167.074C332.177 167.329 331.414 167.692 330.76 168.165C330.106 168.637 329.579 169.219 329.179 169.909C328.815 170.564 328.633 171.272 328.633 172.036V182.504C328.633 183.413 328.815 184.23 329.179 184.957C329.579 185.648 330.106 186.248 330.76 186.757C331.414 187.229 332.177 187.593 333.05 187.847C333.958 188.101 334.903 188.229 335.885 188.229ZM366.53 192.154C364.64 192.154 362.914 191.809 361.351 191.118C359.788 190.428 358.443 189.446 357.316 188.174C356.226 186.866 355.372 185.321 354.754 183.54C354.136 181.722 353.827 179.687 353.827 177.433C353.827 175.216 354.136 173.199 354.754 171.381C355.372 169.564 356.226 168.019 357.316 166.747C358.443 165.439 359.788 164.439 361.351 163.748C362.914 163.058 364.64 162.713 366.53 162.713C368.42 162.713 370.129 163.058 371.655 163.748C373.218 164.439 374.563 165.439 375.69 166.747C376.817 168.019 377.689 169.564 378.307 171.381C378.925 173.199 379.234 175.216 379.234 177.433C379.234 179.687 378.925 181.722 378.307 183.54C377.689 185.321 376.817 186.866 375.69 188.174C374.563 189.446 373.218 190.428 371.655 191.118C370.129 191.809 368.42 192.154 366.53 192.154ZM366.53 188.283C368.893 188.283 370.819 187.556 372.31 186.102C373.8 184.648 374.545 182.431 374.545 179.451V175.416C374.545 172.436 373.8 170.218 372.31 168.764C370.819 167.311 368.893 166.584 366.53 166.584C364.168 166.584 362.241 167.311 360.751 168.764C359.261 170.218 358.516 172.436 358.516 175.416V179.451C358.516 182.431 359.261 184.648 360.751 186.102C362.241 187.556 364.168 188.283 366.53 188.283ZM386.407 163.367H390.66V178.96L390.224 185.721H390.442L393.931 179.723L405.163 163.367H409.197V191.5H404.945V175.907L405.381 169.146H405.163L401.673 175.143L390.442 191.5H386.407V163.367ZM424.512 167.183H414.916V163.367H438.47V167.183H428.874V191.5H424.512V167.183ZM454.062 192.154C452.136 192.154 450.391 191.809 448.828 191.118C447.301 190.428 445.975 189.446 444.848 188.174C443.757 186.866 442.903 185.321 442.285 183.54C441.704 181.722 441.413 179.687 441.413 177.433C441.413 175.216 441.704 173.199 442.285 171.381C442.903 169.564 443.757 168.019 444.848 166.747C445.975 165.439 447.301 164.439 448.828 163.748C450.391 163.058 452.136 162.713 454.062 162.713C455.952 162.713 457.642 163.058 459.133 163.748C460.623 164.439 461.895 165.402 462.949 166.638C464.003 167.838 464.803 169.273 465.348 170.945C465.93 172.617 466.22 174.453 466.22 176.452V178.524H445.993V179.832C445.993 181.032 446.175 182.159 446.538 183.213C446.938 184.23 447.483 185.121 448.174 185.884C448.901 186.648 449.773 187.247 450.791 187.683C451.845 188.12 453.026 188.338 454.335 188.338C456.116 188.338 457.66 187.92 458.969 187.084C460.314 186.248 461.35 185.048 462.077 183.485L465.184 185.721C464.276 187.647 462.858 189.21 460.932 190.41C459.005 191.573 456.715 192.154 454.062 192.154ZM454.062 166.365C452.863 166.365 451.772 166.584 450.791 167.02C449.809 167.42 448.955 168.001 448.228 168.764C447.538 169.528 446.992 170.436 446.593 171.491C446.193 172.508 445.993 173.635 445.993 174.871V175.253H461.532V174.653C461.532 172.145 460.841 170.146 459.46 168.655C458.115 167.129 456.316 166.365 454.062 166.365ZM469.21 187.683H472.917C473.39 187.029 473.808 186.248 474.171 185.339C474.535 184.43 474.844 183.34 475.098 182.068C475.353 180.796 475.552 179.287 475.698 177.542C475.843 175.798 475.916 173.744 475.916 171.381V163.367H494.944V191.5H490.582V167.183H480.06V171.491C480.06 174.217 479.951 176.597 479.732 178.633C479.551 180.668 479.278 182.413 478.915 183.867C478.587 185.321 478.188 186.52 477.715 187.465C477.243 188.374 476.734 189.101 476.189 189.646C475.498 190.337 474.735 190.828 473.899 191.118C473.063 191.373 472.063 191.5 470.9 191.5H469.21V187.683ZM504.236 163.367H508.598V173.562H516.613C519.448 173.562 521.701 174.362 523.373 175.961C525.045 177.561 525.881 179.76 525.881 182.558C525.881 185.394 525.063 187.593 523.428 189.156C521.792 190.719 519.539 191.5 516.667 191.5H504.236V163.367ZM516.013 187.683C517.648 187.683 518.921 187.375 519.829 186.757C520.738 186.139 521.192 185.103 521.192 183.649V181.359C521.192 179.905 520.738 178.887 519.829 178.306C518.921 177.688 517.648 177.379 516.013 177.379H508.598V187.683H516.013ZM532.562 163.367H536.924V175.089H550.99V163.367H555.352V191.5H550.99V178.905H536.924V191.5H532.562V163.367ZM585.06 191.5C583.425 191.5 582.243 191.064 581.516 190.191C580.826 189.319 580.39 188.229 580.208 186.92H579.935C579.317 188.665 578.3 189.973 576.882 190.846C575.464 191.718 573.774 192.154 571.812 192.154C568.831 192.154 566.505 191.391 564.833 189.864C563.197 188.338 562.379 186.266 562.379 183.649C562.379 180.995 563.342 178.96 565.269 177.542C567.232 176.125 570.267 175.416 574.374 175.416H579.935V172.635C579.935 170.636 579.39 169.11 578.3 168.056C577.209 167.002 575.537 166.475 573.284 166.475C571.575 166.475 570.14 166.856 568.976 167.619C567.85 168.383 566.905 169.401 566.141 170.673L563.524 168.219C564.288 166.693 565.505 165.402 567.177 164.348C568.849 163.258 570.957 162.713 573.502 162.713C576.918 162.713 579.572 163.549 581.462 165.221C583.352 166.893 584.297 169.219 584.297 172.199V187.683H587.514V191.5H585.06ZM572.52 188.447C573.611 188.447 574.61 188.32 575.519 188.065C576.428 187.811 577.209 187.447 577.863 186.975C578.518 186.502 579.027 185.957 579.39 185.339C579.754 184.721 579.935 184.049 579.935 183.322V178.687H574.156C571.648 178.687 569.812 179.051 568.649 179.778C567.522 180.505 566.959 181.559 566.959 182.94V184.085C566.959 185.466 567.45 186.539 568.431 187.302C569.449 188.065 570.812 188.447 572.52 188.447ZM591.231 187.683H594.339L596.138 183.54C596.538 182.595 597.029 181.886 597.61 181.413C598.192 180.905 598.846 180.596 599.573 180.487V180.269C597.065 180.05 595.175 179.233 593.903 177.815C592.63 176.397 591.994 174.489 591.994 172.09C591.994 169.364 592.812 167.238 594.448 165.711C596.084 164.148 598.337 163.367 601.209 163.367H613.64V191.5H609.278V180.705H601.972L599.028 187.629C598.373 189.156 597.646 190.191 596.847 190.737C596.084 191.246 595.211 191.5 594.23 191.5H591.231V187.683ZM609.278 176.997V167.183H601.863C600.227 167.183 598.955 167.492 598.046 168.11C597.138 168.728 596.683 169.764 596.683 171.218V173.017C596.683 174.471 597.138 175.507 598.046 176.125C598.955 176.706 600.227 176.997 601.863 176.997H609.278ZM635.802 163.367H640.164V175.143H645.779L651.231 166.529C651.631 165.875 652.013 165.348 652.376 164.948C652.74 164.512 653.103 164.185 653.467 163.967C653.83 163.748 654.212 163.603 654.612 163.53C655.012 163.421 655.466 163.367 655.975 163.367H658.537V167.183H655.157L650.741 174.162C650.45 174.635 650.196 175.016 649.977 175.307C649.759 175.598 649.541 175.852 649.323 176.07C649.105 176.252 648.869 176.416 648.614 176.561C648.36 176.67 648.051 176.779 647.688 176.888V177.106C648.451 177.215 649.105 177.47 649.65 177.87C650.232 178.233 650.832 178.96 651.45 180.05L655.757 187.683H658.974V191.5H655.811C654.866 191.5 653.994 191.264 653.194 190.791C652.431 190.282 651.686 189.374 650.959 188.065L645.779 178.851H640.164V191.5H635.802V163.367ZM675.558 192.154C673.668 192.154 671.941 191.809 670.378 191.118C668.815 190.428 667.471 189.446 666.344 188.174C665.253 186.866 664.399 185.321 663.781 183.54C663.163 181.722 662.854 179.687 662.854 177.433C662.854 175.216 663.163 173.199 663.781 171.381C664.399 169.564 665.253 168.019 666.344 166.747C667.471 165.439 668.815 164.439 670.378 163.748C671.941 163.058 673.668 162.713 675.558 162.713C677.448 162.713 679.156 163.058 680.683 163.748C682.246 164.439 683.591 165.439 684.718 166.747C685.844 168.019 686.717 169.564 687.335 171.381C687.953 173.199 688.261 175.216 688.261 177.433C688.261 179.687 687.953 181.722 687.335 183.54C686.717 185.321 685.844 186.866 684.718 188.174C683.591 189.446 682.246 190.428 680.683 191.118C679.156 191.809 677.448 192.154 675.558 192.154ZM675.558 188.283C677.921 188.283 679.847 187.556 681.337 186.102C682.827 184.648 683.573 182.431 683.573 179.451V175.416C683.573 172.436 682.827 170.218 681.337 168.764C679.847 167.311 677.921 166.584 675.558 166.584C673.195 166.584 671.269 167.311 669.779 168.764C668.288 170.218 667.543 172.436 667.543 175.416V179.451C667.543 182.431 668.288 184.648 669.779 186.102C671.269 187.556 673.195 188.283 675.558 188.283ZM695.435 163.367H701.16L709.72 177.979H709.938L718.443 163.367H724.113V191.5H719.861V168.601H719.588L718.007 171.654L709.774 185.612L701.541 171.654L699.96 168.601H699.688V191.5H695.435V163.367ZM733.398 163.367H755.37V191.5H751.008V167.183H737.76V191.5H733.398V163.367ZM785.098 191.5C783.462 191.5 782.281 191.064 781.554 190.191C780.863 189.319 780.427 188.229 780.245 186.92H779.973C779.355 188.665 778.337 189.973 776.919 190.846C775.502 191.718 773.812 192.154 771.849 192.154C768.868 192.154 766.542 191.391 764.87 189.864C763.234 188.338 762.417 186.266 762.417 183.649C762.417 180.995 763.38 178.96 765.306 177.542C767.269 176.125 770.304 175.416 774.411 175.416H779.973V172.635C779.973 170.636 779.427 169.11 778.337 168.056C777.246 167.002 775.574 166.475 773.321 166.475C771.613 166.475 770.177 166.856 769.014 167.619C767.887 168.383 766.942 169.401 766.179 170.673L763.562 168.219C764.325 166.693 765.542 165.402 767.214 164.348C768.886 163.258 770.995 162.713 773.539 162.713C776.956 162.713 779.609 163.549 781.499 165.221C783.389 166.893 784.334 169.219 784.334 172.199V187.683H787.551V191.5H785.098ZM772.558 188.447C773.648 188.447 774.648 188.32 775.556 188.065C776.465 187.811 777.246 187.447 777.901 186.975C778.555 186.502 779.064 185.957 779.427 185.339C779.791 184.721 779.973 184.049 779.973 183.322V178.687H774.193C771.685 178.687 769.85 179.051 768.687 179.778C767.56 180.505 766.996 181.559 766.996 182.94V184.085C766.996 185.466 767.487 186.539 768.468 187.302C769.486 188.065 770.849 188.447 772.558 188.447ZM793.776 163.367H798.138V175.089H812.205V163.367H816.566V191.5H812.205V178.905H798.138V191.5H793.776V163.367ZM825.829 163.367H830.082V178.96L829.646 185.721H829.864L833.353 179.723L844.585 163.367H848.619V191.5H844.367V175.907L844.803 169.146H844.585L841.095 175.143L829.864 191.5H825.829V163.367ZM855.374 187.683H858.482L860.281 183.54C860.681 182.595 861.172 181.886 861.753 181.413C862.335 180.905 862.989 180.596 863.716 180.487V180.269C861.208 180.05 859.318 179.233 858.046 177.815C856.773 176.397 856.137 174.489 856.137 172.09C856.137 169.364 856.955 167.238 858.591 165.711C860.226 164.148 862.48 163.367 865.352 163.367H877.782V191.5H873.421V180.705H866.115L863.171 187.629C862.516 189.156 861.789 190.191 860.99 190.737C860.226 191.246 859.354 191.5 858.373 191.5H855.374V187.683ZM873.421 176.997V167.183H866.006C864.37 167.183 863.098 167.492 862.189 168.11C861.281 168.728 860.826 169.764 860.826 171.218V173.017C860.826 174.471 861.281 175.507 862.189 176.125C863.098 176.706 864.37 176.997 866.006 176.997H873.421Z" fill="#7E8085"/>
</svg>
